<svg xmlns="http://www.w3.org/2000/svg" xmlns:xlink="http://www.w3.org/1999/xlink" version="1.1" id="Paint_1_" x="0px" y="0px" width="100px" height="100px" viewBox="0 0 100 100" enable-background="new 0 0 100 100" xml:space="preserve">
<path id="Paint" fill="#000000" d="M86.809,5.218H19.953c-1.633,0-2.958,3.973-2.958,8.875c0,4.901,1.325,8.874,2.958,8.874h66.857  c1.633-0.001,2.958-3.974,2.958-8.874C89.767,9.192,88.442,5.219,86.809,5.218z M46.024,48.141v46.641h14.004V48.141H46.024z   M55.213,88.516c0,1.208-0.979,2.188-2.188,2.188s-2.188-0.979-2.188-2.188s0.979-2.188,2.188-2.188S55.213,87.308,55.213,88.516z   M55.233,48.141h-4v-5.493L11.682,31.313c-0.858-0.246-1.449-1.03-1.449-1.922V16.304c0-0.751,0.264-1.438,0.933-1.78l4.067-2.165  v4.5l-1,0.668v10.356l39.551,11.335c0.858,0.246,1.449,1.03,1.449,1.922V48.141z"/>
</svg>